<mxfile host="app.diagrams.net" agent="Mozilla/5.0 (X11; Linux x86_64) AppleWebKit/537.36 (KHTML, like Gecko) Chrome/127.0.0.0 Safari/537.36" version="24.8.6">
  <diagram name="Page-1" id="YQjZl21JuIB-dZmJOCAF">
    <mxGraphModel dx="1080" dy="1636" grid="1" gridSize="10" guides="1" tooltips="1" connect="1" arrows="1" fold="1" page="1" pageScale="1" pageWidth="827" pageHeight="1169" math="0" shadow="0">
      <root>
        <mxCell id="0" />
        <mxCell id="1" parent="0" />
        <mxCell id="wo6wmSY38arS-F1SNJwh-1" value="Guest" style="shape=umlActor;verticalLabelPosition=bottom;verticalAlign=top;html=1;outlineConnect=0;" vertex="1" parent="1">
          <mxGeometry x="90" width="30" height="60" as="geometry" />
        </mxCell>
        <mxCell id="wo6wmSY38arS-F1SNJwh-7" value="Host" style="shape=umlActor;verticalLabelPosition=bottom;verticalAlign=top;html=1;outlineConnect=0;" vertex="1" parent="1">
          <mxGeometry x="90" y="330" width="30" height="60" as="geometry" />
        </mxCell>
        <mxCell id="wo6wmSY38arS-F1SNJwh-8" value="Airbnb App" style="swimlane;whiteSpace=wrap;html=1;" vertex="1" parent="1">
          <mxGeometry x="170" y="-200" width="700" height="810" as="geometry">
            <mxRectangle x="160" y="-200" width="100" height="30" as="alternateBounds" />
          </mxGeometry>
        </mxCell>
        <mxCell id="wo6wmSY38arS-F1SNJwh-35" value="&lt;span style=&quot;font-weight: normal;&quot;&gt;authenticate&lt;/span&gt;" style="shape=ellipse;html=1;strokeWidth=1;fontStyle=1;whiteSpace=wrap;align=center;perimeter=ellipsePerimeter;fillColor=#dae8fc;strokeColor=#6c8ebf;" vertex="1" parent="wo6wmSY38arS-F1SNJwh-8">
          <mxGeometry x="100" y="390" width="120" height="60" as="geometry" />
        </mxCell>
        <mxCell id="wo6wmSY38arS-F1SNJwh-37" value="&lt;span style=&quot;font-weight: normal;&quot;&gt;create property listings&lt;/span&gt;" style="shape=ellipse;html=1;strokeWidth=1;fontStyle=1;whiteSpace=wrap;align=center;perimeter=ellipsePerimeter;strokeColor=#6c8ebf;verticalAlign=middle;fontFamily=Helvetica;fontSize=12;fontColor=default;fillColor=#dae8fc;" vertex="1" parent="wo6wmSY38arS-F1SNJwh-8">
          <mxGeometry x="310" y="510" width="130" height="60" as="geometry" />
        </mxCell>
        <mxCell id="wo6wmSY38arS-F1SNJwh-38" value="&lt;div style=&quot;&quot;&gt;&lt;span style=&quot;font-weight: normal; background-color: initial;&quot;&gt;update or delete property listings&lt;/span&gt;&lt;/div&gt;" style="shape=ellipse;html=1;strokeWidth=1;fontStyle=1;whiteSpace=wrap;align=center;perimeter=ellipsePerimeter;strokeColor=#6c8ebf;verticalAlign=middle;fontFamily=Helvetica;fontSize=12;fontColor=default;fillColor=#dae8fc;" vertex="1" parent="wo6wmSY38arS-F1SNJwh-8">
          <mxGeometry x="310" y="610" width="130" height="60" as="geometry" />
        </mxCell>
        <mxCell id="wo6wmSY38arS-F1SNJwh-39" value="&lt;span style=&quot;font-weight: 400;&quot;&gt;Search and Filtering Property&lt;/span&gt;" style="shape=ellipse;html=1;strokeWidth=1;fontStyle=1;whiteSpace=wrap;align=center;perimeter=ellipsePerimeter;fillColor=#dae8fc;strokeColor=#6c8ebf;" vertex="1" parent="wo6wmSY38arS-F1SNJwh-8">
          <mxGeometry x="140" y="50" width="120" height="60" as="geometry" />
        </mxCell>
        <mxCell id="wo6wmSY38arS-F1SNJwh-40" value="&lt;span style=&quot;font-weight: 400;&quot;&gt;book a property&lt;/span&gt;" style="shape=ellipse;html=1;strokeWidth=1;fontStyle=1;whiteSpace=wrap;align=center;perimeter=ellipsePerimeter;fillColor=#dae8fc;strokeColor=#6c8ebf;" vertex="1" parent="wo6wmSY38arS-F1SNJwh-8">
          <mxGeometry x="350" y="300" width="120" height="60" as="geometry" />
        </mxCell>
        <mxCell id="wo6wmSY38arS-F1SNJwh-41" value="&lt;span style=&quot;font-weight: 400;&quot;&gt;cancel booking&lt;/span&gt;" style="shape=ellipse;html=1;strokeWidth=1;fontStyle=1;whiteSpace=wrap;align=center;perimeter=ellipsePerimeter;fillColor=#dae8fc;strokeColor=#6c8ebf;" vertex="1" parent="wo6wmSY38arS-F1SNJwh-8">
          <mxGeometry x="380" y="400" width="120" height="60" as="geometry" />
        </mxCell>
        <mxCell id="wo6wmSY38arS-F1SNJwh-42" value="&lt;span style=&quot;font-weight: 400;&quot;&gt;make a payment&lt;/span&gt;" style="shape=ellipse;html=1;strokeWidth=1;fontStyle=1;whiteSpace=wrap;align=center;perimeter=ellipsePerimeter;fillColor=#dae8fc;strokeColor=#6c8ebf;" vertex="1" parent="wo6wmSY38arS-F1SNJwh-8">
          <mxGeometry x="330" y="210" width="120" height="60" as="geometry" />
        </mxCell>
        <mxCell id="wo6wmSY38arS-F1SNJwh-43" value="&lt;span style=&quot;font-weight: 400;&quot;&gt;Track booking&amp;nbsp;statuses&lt;/span&gt;" style="shape=ellipse;html=1;strokeWidth=1;fontStyle=1;whiteSpace=wrap;align=center;perimeter=ellipsePerimeter;fillColor=#dae8fc;strokeColor=#6c8ebf;" vertex="1" parent="wo6wmSY38arS-F1SNJwh-8">
          <mxGeometry x="290" y="70" width="120" height="60" as="geometry" />
        </mxCell>
        <mxCell id="wo6wmSY38arS-F1SNJwh-48" value="&lt;span style=&quot;font-weight: 400;&quot;&gt;leave reviews and ratings on properties&lt;/span&gt;" style="shape=ellipse;html=1;strokeWidth=1;fontStyle=1;whiteSpace=wrap;align=center;perimeter=ellipsePerimeter;fillColor=#dae8fc;strokeColor=#6c8ebf;" vertex="1" parent="wo6wmSY38arS-F1SNJwh-8">
          <mxGeometry x="270" y="140" width="120" height="60" as="geometry" />
        </mxCell>
        <mxCell id="wo6wmSY38arS-F1SNJwh-47" value="&lt;span style=&quot;font-weight: 400;&quot;&gt;reply to comments&lt;/span&gt;" style="shape=ellipse;html=1;strokeWidth=1;fontStyle=1;whiteSpace=wrap;align=center;perimeter=ellipsePerimeter;fillColor=#dae8fc;strokeColor=#6c8ebf;" vertex="1" parent="wo6wmSY38arS-F1SNJwh-8">
          <mxGeometry x="315" y="725" width="120" height="60" as="geometry" />
        </mxCell>
        <mxCell id="wo6wmSY38arS-F1SNJwh-49" value="&lt;span style=&quot;font-weight: 400;&quot;&gt;notify by e-mail&lt;/span&gt;" style="shape=ellipse;html=1;strokeWidth=1;fontStyle=1;whiteSpace=wrap;align=center;perimeter=ellipsePerimeter;fillColor=#dae8fc;strokeColor=#6c8ebf;" vertex="1" parent="wo6wmSY38arS-F1SNJwh-8">
          <mxGeometry x="560" y="330" width="120" height="60" as="geometry" />
        </mxCell>
        <mxCell id="wo6wmSY38arS-F1SNJwh-87" value="&amp;lt;&amp;lt;include&amp;gt;&amp;gt;" style="edgeStyle=none;html=1;endArrow=open;verticalAlign=bottom;dashed=1;labelBackgroundColor=none;rounded=0;fontFamily=Helvetica;fontSize=12;fontColor=default;fontStyle=1;exitX=0.976;exitY=0.677;exitDx=0;exitDy=0;exitPerimeter=0;entryX=0.5;entryY=0;entryDx=0;entryDy=0;" edge="1" parent="wo6wmSY38arS-F1SNJwh-8" source="wo6wmSY38arS-F1SNJwh-42" target="wo6wmSY38arS-F1SNJwh-49">
          <mxGeometry width="160" relative="1" as="geometry">
            <mxPoint x="440" y="390" as="sourcePoint" />
            <mxPoint x="600" y="390" as="targetPoint" />
          </mxGeometry>
        </mxCell>
        <mxCell id="wo6wmSY38arS-F1SNJwh-88" value="&amp;lt;&amp;lt;include&amp;gt;&amp;gt;" style="edgeStyle=none;html=1;endArrow=open;verticalAlign=bottom;dashed=1;labelBackgroundColor=none;rounded=0;fontFamily=Helvetica;fontSize=12;fontColor=default;fontStyle=1;exitX=1;exitY=0.5;exitDx=0;exitDy=0;entryX=0;entryY=0.5;entryDx=0;entryDy=0;" edge="1" parent="wo6wmSY38arS-F1SNJwh-8" source="wo6wmSY38arS-F1SNJwh-40" target="wo6wmSY38arS-F1SNJwh-49">
          <mxGeometry width="160" relative="1" as="geometry">
            <mxPoint x="440" y="390" as="sourcePoint" />
            <mxPoint x="600" y="390" as="targetPoint" />
          </mxGeometry>
        </mxCell>
        <mxCell id="wo6wmSY38arS-F1SNJwh-89" value="&amp;lt;&amp;lt;include&amp;gt;&amp;gt;" style="edgeStyle=none;html=1;endArrow=open;verticalAlign=bottom;dashed=1;labelBackgroundColor=none;rounded=0;fontFamily=Helvetica;fontSize=12;fontColor=default;fontStyle=1;entryX=0.5;entryY=1;entryDx=0;entryDy=0;" edge="1" parent="wo6wmSY38arS-F1SNJwh-8" target="wo6wmSY38arS-F1SNJwh-49">
          <mxGeometry x="-0.15" y="3" width="160" relative="1" as="geometry">
            <mxPoint x="500" y="430" as="sourcePoint" />
            <mxPoint x="657" y="429.28999999999996" as="targetPoint" />
            <mxPoint as="offset" />
          </mxGeometry>
        </mxCell>
        <mxCell id="wo6wmSY38arS-F1SNJwh-44" value="" style="fontStyle=1;align=center;verticalAlign=middle;childLayout=stackLayout;horizontal=1;horizontalStack=0;resizeParent=1;resizeParentMax=0;resizeLast=0;marginBottom=0;strokeColor=#6c8ebf;strokeWidth=1;fontFamily=Helvetica;fontSize=12;fontColor=default;fillColor=#dae8fc;" vertex="1" parent="1">
          <mxGeometry x="920" y="60" width="80" height="40" as="geometry" />
        </mxCell>
        <mxCell id="wo6wmSY38arS-F1SNJwh-45" value="&amp;lt;&amp;lt;actor&amp;gt;&amp;gt;" style="html=1;align=center;spacing=0;verticalAlign=middle;strokeColor=none;fillColor=none;whiteSpace=wrap;spacingTop=3;strokeWidth=1;fontFamily=Helvetica;fontSize=12;fontColor=default;fontStyle=1;" vertex="1" parent="wo6wmSY38arS-F1SNJwh-44">
          <mxGeometry width="80" height="20" as="geometry" />
        </mxCell>
        <mxCell id="wo6wmSY38arS-F1SNJwh-46" value="Payment system" style="html=1;align=center;spacing=0;verticalAlign=middle;strokeColor=none;fillColor=none;whiteSpace=wrap;spacingBottom=4;fontStyle=1;strokeWidth=1;fontFamily=Helvetica;fontSize=12;fontColor=default;" vertex="1" parent="wo6wmSY38arS-F1SNJwh-44">
          <mxGeometry y="20" width="80" height="20" as="geometry" />
        </mxCell>
        <mxCell id="wo6wmSY38arS-F1SNJwh-67" value="" style="edgeStyle=none;html=1;endArrow=none;verticalAlign=bottom;rounded=0;fontFamily=Helvetica;fontSize=12;fontColor=default;fontStyle=1;entryX=0;entryY=0.5;entryDx=0;entryDy=0;" edge="1" parent="1" source="wo6wmSY38arS-F1SNJwh-1" target="wo6wmSY38arS-F1SNJwh-35">
          <mxGeometry width="160" relative="1" as="geometry">
            <mxPoint x="130" y="50" as="sourcePoint" />
            <mxPoint x="290" y="50" as="targetPoint" />
          </mxGeometry>
        </mxCell>
        <mxCell id="wo6wmSY38arS-F1SNJwh-69" value="" style="edgeStyle=none;html=1;endArrow=none;verticalAlign=bottom;rounded=0;fontFamily=Helvetica;fontSize=12;fontColor=default;fontStyle=1;entryX=-0.011;entryY=0.595;entryDx=0;entryDy=0;entryPerimeter=0;" edge="1" parent="1" source="wo6wmSY38arS-F1SNJwh-1" target="wo6wmSY38arS-F1SNJwh-39">
          <mxGeometry width="160" relative="1" as="geometry">
            <mxPoint x="120" y="80" as="sourcePoint" />
            <mxPoint x="270" y="-120" as="targetPoint" />
          </mxGeometry>
        </mxCell>
        <mxCell id="wo6wmSY38arS-F1SNJwh-70" value="" style="edgeStyle=none;html=1;endArrow=none;verticalAlign=bottom;rounded=0;fontFamily=Helvetica;fontSize=12;fontColor=default;fontStyle=1;entryX=0.039;entryY=0.619;entryDx=0;entryDy=0;entryPerimeter=0;" edge="1" parent="1" source="wo6wmSY38arS-F1SNJwh-1" target="wo6wmSY38arS-F1SNJwh-40">
          <mxGeometry width="160" relative="1" as="geometry">
            <mxPoint x="130" y="90" as="sourcePoint" />
            <mxPoint x="280" y="-110" as="targetPoint" />
          </mxGeometry>
        </mxCell>
        <mxCell id="wo6wmSY38arS-F1SNJwh-71" value="" style="edgeStyle=none;html=1;endArrow=none;verticalAlign=bottom;rounded=0;fontFamily=Helvetica;fontSize=12;fontColor=default;fontStyle=1;" edge="1" parent="1" source="wo6wmSY38arS-F1SNJwh-1" target="wo6wmSY38arS-F1SNJwh-42">
          <mxGeometry width="160" relative="1" as="geometry">
            <mxPoint x="140" y="100" as="sourcePoint" />
            <mxPoint x="290" y="-100" as="targetPoint" />
          </mxGeometry>
        </mxCell>
        <mxCell id="wo6wmSY38arS-F1SNJwh-72" value="" style="edgeStyle=none;html=1;endArrow=none;verticalAlign=bottom;rounded=0;fontFamily=Helvetica;fontSize=12;fontColor=default;fontStyle=1;exitX=1.005;exitY=0.527;exitDx=0;exitDy=0;exitPerimeter=0;entryX=0;entryY=0;entryDx=0;entryDy=0;" edge="1" parent="1" source="wo6wmSY38arS-F1SNJwh-42" target="wo6wmSY38arS-F1SNJwh-46">
          <mxGeometry width="160" relative="1" as="geometry">
            <mxPoint x="530" y="119.65999999999997" as="sourcePoint" />
            <mxPoint x="690" y="119.65999999999997" as="targetPoint" />
          </mxGeometry>
        </mxCell>
        <mxCell id="wo6wmSY38arS-F1SNJwh-73" value="" style="edgeStyle=none;html=1;endArrow=none;verticalAlign=bottom;rounded=0;fontFamily=Helvetica;fontSize=12;fontColor=default;fontStyle=1;entryX=0;entryY=0.5;entryDx=0;entryDy=0;" edge="1" parent="1" source="wo6wmSY38arS-F1SNJwh-1" target="wo6wmSY38arS-F1SNJwh-48">
          <mxGeometry width="160" relative="1" as="geometry">
            <mxPoint x="350" y="200" as="sourcePoint" />
            <mxPoint x="510" y="200" as="targetPoint" />
          </mxGeometry>
        </mxCell>
        <mxCell id="wo6wmSY38arS-F1SNJwh-74" value="" style="edgeStyle=none;html=1;endArrow=none;verticalAlign=bottom;rounded=0;fontFamily=Helvetica;fontSize=12;fontColor=default;fontStyle=1;entryX=0;entryY=0.5;entryDx=0;entryDy=0;" edge="1" parent="1" source="wo6wmSY38arS-F1SNJwh-1" target="wo6wmSY38arS-F1SNJwh-41">
          <mxGeometry width="160" relative="1" as="geometry">
            <mxPoint x="120" y="106" as="sourcePoint" />
            <mxPoint x="405" y="210" as="targetPoint" />
          </mxGeometry>
        </mxCell>
        <mxCell id="wo6wmSY38arS-F1SNJwh-75" value="" style="edgeStyle=none;html=1;endArrow=none;verticalAlign=bottom;rounded=0;fontFamily=Helvetica;fontSize=12;fontColor=default;fontStyle=1;entryX=0;entryY=0.5;entryDx=0;entryDy=0;exitX=0.5;exitY=0.5;exitDx=0;exitDy=0;exitPerimeter=0;" edge="1" parent="1" source="wo6wmSY38arS-F1SNJwh-7" target="wo6wmSY38arS-F1SNJwh-41">
          <mxGeometry width="160" relative="1" as="geometry">
            <mxPoint x="130" y="116" as="sourcePoint" />
            <mxPoint x="415" y="220" as="targetPoint" />
          </mxGeometry>
        </mxCell>
        <mxCell id="wo6wmSY38arS-F1SNJwh-76" value="" style="edgeStyle=none;html=1;endArrow=none;verticalAlign=bottom;rounded=0;fontFamily=Helvetica;fontSize=12;fontColor=default;fontStyle=1;exitX=0.5;exitY=0.5;exitDx=0;exitDy=0;exitPerimeter=0;entryX=0;entryY=0.5;entryDx=0;entryDy=0;" edge="1" parent="1" source="wo6wmSY38arS-F1SNJwh-7" target="wo6wmSY38arS-F1SNJwh-37">
          <mxGeometry width="160" relative="1" as="geometry">
            <mxPoint x="290" y="330" as="sourcePoint" />
            <mxPoint x="450" y="330" as="targetPoint" />
          </mxGeometry>
        </mxCell>
        <mxCell id="wo6wmSY38arS-F1SNJwh-77" value="" style="edgeStyle=none;html=1;endArrow=none;verticalAlign=bottom;rounded=0;fontFamily=Helvetica;fontSize=12;fontColor=default;fontStyle=1;exitX=0.5;exitY=0.5;exitDx=0;exitDy=0;exitPerimeter=0;entryX=0;entryY=0.5;entryDx=0;entryDy=0;" edge="1" parent="1" source="wo6wmSY38arS-F1SNJwh-7" target="wo6wmSY38arS-F1SNJwh-38">
          <mxGeometry width="160" relative="1" as="geometry">
            <mxPoint x="125" y="400" as="sourcePoint" />
            <mxPoint x="529" y="409" as="targetPoint" />
          </mxGeometry>
        </mxCell>
        <mxCell id="wo6wmSY38arS-F1SNJwh-78" value="" style="edgeStyle=none;html=1;endArrow=none;verticalAlign=bottom;rounded=0;fontFamily=Helvetica;fontSize=12;fontColor=default;fontStyle=1;exitX=0.5;exitY=0.5;exitDx=0;exitDy=0;exitPerimeter=0;entryX=0;entryY=0.5;entryDx=0;entryDy=0;" edge="1" parent="1" source="wo6wmSY38arS-F1SNJwh-7" target="wo6wmSY38arS-F1SNJwh-47">
          <mxGeometry width="160" relative="1" as="geometry">
            <mxPoint x="135" y="410" as="sourcePoint" />
            <mxPoint x="539" y="419" as="targetPoint" />
          </mxGeometry>
        </mxCell>
        <mxCell id="wo6wmSY38arS-F1SNJwh-79" value="" style="edgeStyle=none;html=1;endArrow=none;verticalAlign=bottom;rounded=0;fontFamily=Helvetica;fontSize=12;fontColor=default;fontStyle=1;entryX=0;entryY=0.5;entryDx=0;entryDy=0;exitX=1;exitY=0.3333333333333333;exitDx=0;exitDy=0;exitPerimeter=0;" edge="1" parent="1" source="wo6wmSY38arS-F1SNJwh-1" target="wo6wmSY38arS-F1SNJwh-43">
          <mxGeometry width="160" relative="1" as="geometry">
            <mxPoint x="110" y="90" as="sourcePoint" />
            <mxPoint x="270" y="90" as="targetPoint" />
          </mxGeometry>
        </mxCell>
        <mxCell id="wo6wmSY38arS-F1SNJwh-80" value="" style="edgeStyle=none;html=1;endArrow=block;endFill=0;endSize=12;verticalAlign=bottom;rounded=0;fontFamily=Helvetica;fontSize=12;fontColor=default;fontStyle=1;exitX=0.5;exitY=0;exitDx=0;exitDy=0;exitPerimeter=0;" edge="1" parent="1" source="wo6wmSY38arS-F1SNJwh-7">
          <mxGeometry width="160" relative="1" as="geometry">
            <mxPoint x="104" y="320" as="sourcePoint" />
            <mxPoint x="104.41" y="79.99999999999977" as="targetPoint" />
          </mxGeometry>
        </mxCell>
        <mxCell id="wo6wmSY38arS-F1SNJwh-83" value="" style="edgeStyle=none;html=1;endArrow=none;verticalAlign=bottom;rounded=0;fontFamily=Helvetica;fontSize=12;fontColor=default;fontStyle=1;entryX=0;entryY=0.5;entryDx=0;entryDy=0;" edge="1" parent="1" source="wo6wmSY38arS-F1SNJwh-7" target="wo6wmSY38arS-F1SNJwh-35">
          <mxGeometry width="160" relative="1" as="geometry">
            <mxPoint x="115" y="370" as="sourcePoint" />
            <mxPoint x="670" y="240" as="targetPoint" />
          </mxGeometry>
        </mxCell>
      </root>
    </mxGraphModel>
  </diagram>
</mxfile>
